<svg width="153" height="39" viewBox="0 0 153 39" fill="none" xmlns="http://www.w3.org/2000/svg">
<path d="M18.31 0.409707H11.497C11.0266 0.409707 10.6453 0.776574 10.6453 1.22913V7.78449C10.6453 8.23704 11.0266 8.60391 11.497 8.60391H18.31C18.7803 8.60391 19.1616 8.23704 19.1616 7.78449V1.22913C19.1616 0.776574 18.7803 0.409707 18.31 0.409707Z" fill="white"/>
<path d="M28.5295 0.409707H21.7165C21.2462 0.409707 20.8649 0.776574 20.8649 1.22913V7.78449C20.8649 8.23704 21.2462 8.60391 21.7165 8.60391H28.5295C28.9999 8.60391 29.3812 8.23704 29.3812 7.78449V1.22913C29.3812 0.776574 28.9999 0.409707 28.5295 0.409707Z" fill="white"/>
<path d="M8.09046 10.2427H1.27744C0.807097 10.2427 0.425811 10.6096 0.425811 11.0622V17.6175C0.425811 18.0701 0.807097 18.437 1.27744 18.437H8.09046C8.5608 18.437 8.94209 18.0701 8.94209 17.6175V11.0622C8.94209 10.6096 8.5608 10.2427 8.09046 10.2427Z" fill="white"/>
<path d="M18.31 10.2427H11.497C11.0266 10.2427 10.6453 10.6096 10.6453 11.0622V17.6175C10.6453 18.0701 11.0266 18.437 11.497 18.437H18.31C18.7803 18.437 19.1616 18.0701 19.1616 17.6175V11.0622C19.1616 10.6096 18.7803 10.2427 18.31 10.2427Z" fill="white"/>
<path d="M8.09046 20.0758H1.27744C0.807097 20.0758 0.425811 20.4427 0.425811 20.8952V27.4506C0.425811 27.9031 0.807097 28.27 1.27744 28.27H8.09046C8.5608 28.27 8.94209 27.9031 8.94209 27.4506V20.8952C8.94209 20.4427 8.5608 20.0758 8.09046 20.0758Z" fill="white"/>
<path d="M18.31 20.0758H11.497C11.0266 20.0758 10.6453 20.4427 10.6453 20.8952V27.4506C10.6453 27.9031 11.0266 28.27 11.497 28.27H18.31C18.7803 28.27 19.1616 27.9031 19.1616 27.4506V20.8952C19.1616 20.4427 18.7803 20.0758 18.31 20.0758Z" fill="white"/>
<path d="M28.5295 20.0758H21.7165C21.2462 20.0758 20.8649 20.4427 20.8649 20.8952V27.4506C20.8649 27.9031 21.2462 28.27 21.7165 28.27H28.5295C28.9999 28.27 29.3812 27.9031 29.3812 27.4506V20.8952C29.3812 20.4427 28.9999 20.0758 28.5295 20.0758Z" fill="white"/>
<path d="M8.09046 29.9088H1.27744C0.807097 29.9088 0.425811 30.2757 0.425811 30.7283V37.2836C0.425811 37.7362 0.807097 38.103 1.27744 38.103H8.09046C8.5608 38.103 8.94209 37.7362 8.94209 37.2836V30.7283C8.94209 30.2757 8.5608 29.9088 8.09046 29.9088Z" fill="white"/>
<path d="M18.31 29.9088H11.497C11.0266 29.9088 10.6453 30.2757 10.6453 30.7283V37.2836C10.6453 37.7362 11.0266 38.103 11.497 38.103H18.31C18.7803 38.103 19.1616 37.7362 19.1616 37.2836V30.7283C19.1616 30.2757 18.7803 29.9088 18.31 29.9088Z" fill="white"/>
<path d="M4.68396 9.01362C7.27083 9.01362 9.36791 6.99586 9.36791 4.50681C9.36791 2.01777 7.27083 0 4.68396 0C2.09708 0 0 2.01777 0 4.50681C0 6.99586 2.09708 9.01362 4.68396 9.01362Z" fill="white"/>
<path d="M36.5543 16.9118V8.72256H38.359V16.9118H36.5543Z" fill="white"/>
<path d="M48.064 16.9118H45.7703L42.0677 10.7166H42.0153C42.0891 11.8108 42.1259 12.5913 42.1259 13.058V16.9118H40.5133V8.72256H42.7896L46.4864 14.8563H46.5271C46.4689 13.792 46.4398 13.0396 46.4398 12.5989V8.72268H48.064L48.064 16.9118Z" fill="white"/>
<path d="M55.2245 14.6379C55.2245 15.3773 54.947 15.9599 54.392 16.3856C53.8409 16.8113 53.0724 17.0242 52.0866 17.0242C51.1784 17.0242 50.375 16.8599 49.6764 16.5313V14.918C50.2508 15.1645 50.736 15.3381 51.1319 15.439C51.5316 15.5398 51.8964 15.5902 52.2263 15.5902C52.6222 15.5902 52.9249 15.5174 53.1345 15.3717C53.348 15.2261 53.4547 15.0095 53.4547 14.722C53.4547 14.5614 53.4081 14.4195 53.315 14.2963C53.2218 14.1693 53.0841 14.0479 52.9016 13.9322C52.7231 13.8164 52.3563 13.6316 51.8013 13.3776C51.2813 13.1424 50.8912 12.9164 50.6312 12.6998C50.3712 12.4832 50.1635 12.2312 50.0083 11.9436C49.853 11.6561 49.7754 11.32 49.7754 10.9354C49.7754 10.2109 50.0296 9.64145 50.538 9.22693C51.0504 8.81241 51.7567 8.60516 52.6571 8.60516C53.0996 8.60516 53.5207 8.65557 53.9204 8.7564C54.3241 8.85722 54.7452 8.99913 55.1838 9.18213L54.6016 10.5321C54.1475 10.3528 53.771 10.2277 53.4722 10.1568C53.1772 10.0858 52.8861 10.0504 52.5989 10.0504C52.2574 10.0504 51.9954 10.1269 51.813 10.28C51.6306 10.4331 51.5394 10.6329 51.5394 10.8794C51.5394 11.0325 51.5763 11.1669 51.65 11.2827C51.7237 11.3947 51.8402 11.5049 51.9993 11.6132C52.1623 11.7177 52.5446 11.9082 53.1462 12.1845C53.9418 12.5505 54.4871 12.9183 54.7821 13.288C55.0771 13.654 55.2245 14.1039 55.2245 14.6379Z" fill="white"/>
<path d="M60.0507 16.9118H58.246V10.1676H55.9348V8.72244H62.362V10.1676H60.0508L60.0507 16.9118Z" fill="white"/>
<path d="M63.6833 16.9118V8.72256H65.4881V16.9118H63.6833Z" fill="white"/>
<path d="M70.9256 16.9118H69.1208V10.1676H66.8096V8.72244H73.2369V10.1676H70.9257L70.9256 16.9118Z" fill="white"/>
<path d="M81.4858 8.72174V14.0209C81.4858 14.6259 81.3441 15.1562 81.0608 15.6118C80.7813 16.0674 80.3758 16.4165 79.844 16.6592C79.3123 16.902 78.6836 17.0233 77.9578 17.0233C76.8633 17.0233 76.0134 16.7544 75.4079 16.2167C74.8025 15.6752 74.4997 14.9358 74.4997 13.9985V8.72181H76.2986V13.735C76.2986 14.3661 76.4306 14.8292 76.6945 15.1242C76.9584 15.4192 77.3951 15.5667 78.0044 15.5667C78.5943 15.5667 79.0212 15.4192 79.2852 15.1242C79.553 14.8254 79.6869 14.3586 79.6869 13.7238V8.72165L81.4858 8.72174Z" fill="white"/>
<path d="M86.8553 16.9118H85.0505V10.1676H82.7394V8.72244H89.1666V10.1676H86.8554L86.8553 16.9118Z" fill="white"/>
<path d="M98.2117 12.8066C98.2117 14.1621 97.8624 15.204 97.1638 15.9322C96.4653 16.6604 95.4639 17.0245 94.1599 17.0245C92.8558 17.0245 91.8545 16.6604 91.1559 15.9322C90.4573 15.204 90.108 14.1584 90.108 12.7954C90.108 11.4323 90.4573 10.3923 91.1559 9.67534C91.8584 8.95461 92.8636 8.59424 94.1715 8.59424C95.4794 8.59424 96.4788 8.95646 97.1696 9.68091C97.8644 10.4054 98.2117 11.4472 98.2117 12.8066ZM92 12.8066C92 13.7215 92.1804 14.4104 92.5414 14.8735C92.9023 15.3366 93.4418 15.5681 94.1598 15.5681C95.5997 15.5681 96.3197 14.6476 96.3197 12.8066C96.3197 10.9618 95.6036 10.0394 94.1715 10.0394C93.4535 10.0394 92.9121 10.2728 92.5472 10.7396C92.1824 11.2027 92 11.8916 92 12.8066Z" fill="white"/>
<path d="M104.692 16.8171H102.916V8.62782H107.794V10.0506H104.692V12.1624H107.579V13.5795H104.692V16.8171Z" fill="white"/>
<path d="M114.361 16.8171H109.459V8.62782H114.361V10.0506H111.264V11.8487H114.146V13.2714H111.264V15.3832H114.361V16.8171Z" fill="white"/>
<path d="M123.205 12.6422C123.205 13.9903 122.805 15.0228 122.005 15.7398C121.21 16.4568 120.059 16.8153 118.553 16.8153H116.143V8.62603H118.815C120.205 8.62603 121.283 8.97892 122.052 9.68472C122.82 10.3905 123.205 11.3762 123.205 12.6422ZM121.33 12.687C121.33 10.9281 120.523 10.0487 118.908 10.0487H117.948V15.3814H118.722C120.461 15.3814 121.33 14.4832 121.33 12.687Z" fill="white"/>
<path d="M129.87 16.8171H124.968V8.62782H129.87V10.0506H126.773V11.8487H129.655V13.2714H126.773V15.3832H129.87V16.8171Z" fill="white"/>
<path d="M133.457 12.2611H134.039C134.609 12.2611 135.03 12.1697 135.302 11.9867C135.574 11.8037 135.71 11.5161 135.71 11.124C135.71 10.7356 135.57 10.4593 135.29 10.295C135.015 10.1307 134.586 10.0485 134.004 10.0485H133.457V12.2611ZM133.457 13.6727V16.8152H131.652V8.62587H134.132C135.288 8.62587 136.144 8.82939 136.699 9.23642C137.254 9.63974 137.532 10.254 137.532 11.0793C137.532 11.561 137.394 11.9905 137.118 12.3676C136.843 12.7411 136.453 13.0342 135.948 13.2471C137.229 15.0881 138.063 16.2775 138.452 16.8152H136.449L134.417 13.6728L133.457 13.6727Z" fill="white"/>
<path d="M144.733 16.8171L144.115 14.8678H141.012L140.395 16.8171H138.451L141.455 8.59424H143.661L146.677 16.8171H144.733ZM143.685 13.4114C143.114 11.6451 142.792 10.6461 142.718 10.4146C142.648 10.1831 142.598 10.0001 142.567 9.86569C142.439 10.3437 142.072 11.5256 141.467 13.4115L143.685 13.4114Z" fill="white"/>
<path d="M147.743 16.8171V8.62782H149.548V15.3831H153V16.8171H147.743Z" fill="white"/>
<path d="M39.0621 24.2075H41.23V27.1915C40.8927 27.2951 40.5495 27.3734 40.2006 27.4266C39.8516 27.4797 39.4474 27.5063 38.988 27.5063C38.0225 27.5063 37.2708 27.2307 36.7328 26.6795C36.1949 26.1255 35.9259 25.3504 35.9259 24.3544C35.9259 23.7164 36.0582 23.1582 36.3228 22.6798C36.5903 22.1985 36.9742 21.832 37.4744 21.5801C37.9745 21.3255 38.5605 21.1982 39.2322 21.1982C39.9127 21.1982 40.5466 21.3185 41.134 21.5592L40.8462 22.1887C40.2704 21.9537 39.7164 21.8362 39.1842 21.8362C38.4078 21.8362 37.8015 22.0586 37.3653 22.5035C36.9291 22.9484 36.711 23.5653 36.711 24.3544C36.711 25.1826 36.9204 25.8107 37.3391 26.2388C37.7608 26.6669 38.3787 26.881 39.193 26.881C39.635 26.881 40.0668 26.832 40.4885 26.7341V24.8454H39.0621V24.2075Z" fill="white"/>
<path d="M46.7828 25.1182C46.7828 25.8681 46.5865 26.4543 46.1939 26.8768C45.8013 27.2965 45.259 27.5063 44.5669 27.5063C44.1394 27.5063 43.7599 27.4098 43.4284 27.2167C43.0969 27.0237 42.841 26.7467 42.6607 26.3857C42.4804 26.0248 42.3903 25.6023 42.3903 25.1182C42.3903 24.3684 42.5851 23.785 42.9748 23.3681C43.3645 22.9484 43.9053 22.7385 44.5974 22.7385C45.2663 22.7385 45.797 22.9526 46.1896 23.3807C46.585 23.8088 46.7828 24.3879 46.7828 25.1182ZM43.1406 25.1182C43.1406 25.7058 43.2627 26.1535 43.507 26.4613C43.7512 26.769 44.1104 26.9229 44.5844 26.9229C45.0584 26.9229 45.4175 26.7704 45.6618 26.4655C45.9089 26.1577 46.0325 25.7086 46.0325 25.1182C46.0325 24.5334 45.9089 24.09 45.6618 23.7878C45.4175 23.4828 45.0555 23.3303 44.5756 23.3303C44.1016 23.3303 43.744 23.48 43.5026 23.7794C43.2612 24.0788 43.1406 24.525 43.1406 25.1182Z" fill="white"/>
<path d="M48.7806 27.4224H48.0565V22.8225H48.7806V27.4224ZM47.9954 21.576C47.9954 21.4165 48.0361 21.3003 48.1175 21.2276C48.199 21.1521 48.3008 21.1143 48.4229 21.1143C48.5392 21.1143 48.6395 21.1521 48.7239 21.2276C48.8082 21.3031 48.8504 21.4193 48.8504 21.576C48.8504 21.7326 48.8082 21.8502 48.7239 21.9285C48.6395 22.004 48.5392 22.0418 48.4229 22.0418C48.3008 22.0418 48.199 22.004 48.1175 21.9285C48.0361 21.8502 47.9954 21.7326 47.9954 21.576Z" fill="white"/>
<path d="M53.2559 27.4224L53.112 26.7676H53.0771C52.8386 27.0558 52.6002 27.2517 52.3617 27.3552C52.1262 27.4559 51.831 27.5063 51.4763 27.5063C51.0023 27.5063 50.63 27.3888 50.3596 27.1538C50.0921 26.9187 49.9583 26.5844 49.9583 26.1507C49.9583 25.2217 50.7304 24.7349 52.2745 24.6901L53.0858 24.6649V24.3795C53.0858 24.0186 53.0044 23.7528 52.8416 23.5821C52.6816 23.4086 52.4243 23.3219 52.0695 23.3219C51.6711 23.3219 51.2204 23.4394 50.7173 23.6744L50.4948 23.1414C50.7304 23.0183 50.9877 22.9218 51.2669 22.8518C51.549 22.7819 51.831 22.7469 52.1131 22.7469C52.6831 22.7469 53.1047 22.8686 53.3781 23.1121C53.6543 23.3555 53.7925 23.7458 53.7925 24.283V27.4224H53.2559ZM51.6202 26.9313C52.0709 26.9313 52.4243 26.8124 52.6802 26.5746C52.939 26.3367 53.0684 26.0038 53.0684 25.5757V25.1602L52.3443 25.1896C51.7685 25.2092 51.3527 25.2959 51.0968 25.4498C50.8438 25.6009 50.7173 25.8373 50.7173 26.1591C50.7173 26.4109 50.7958 26.6026 50.9528 26.7341C51.1128 26.8656 51.3352 26.9313 51.6202 26.9313Z" fill="white"/>
<path d="M58.5601 27.4224V24.4467C58.5601 24.0718 58.4714 23.792 58.294 23.6073C58.1166 23.4226 57.8389 23.3303 57.4609 23.3303C56.9607 23.3303 56.5943 23.4604 56.3617 23.7206C56.129 23.9808 56.0127 24.4103 56.0127 25.0091V27.4224H55.2886V22.8225H55.8775L55.9953 23.452H56.0301C56.1785 23.2254 56.3864 23.0505 56.6539 22.9274C56.9214 22.8015 57.2195 22.7385 57.5481 22.7385C58.1239 22.7385 58.5572 22.8728 58.848 23.1414C59.1388 23.4072 59.2842 23.8339 59.2842 24.4215V27.4224H58.5601Z" fill="white"/>
<path d="M64.9024 25.1182C64.9024 25.8681 64.7061 26.4543 64.3135 26.8768C63.9209 27.2965 63.3786 27.5063 62.6865 27.5063C62.259 27.5063 61.8795 27.4098 61.548 27.2167C61.2165 27.0237 60.9606 26.7467 60.7803 26.3857C60.6 26.0248 60.5099 25.6023 60.5099 25.1182C60.5099 24.3684 60.7047 23.785 61.0944 23.3681C61.4841 22.9484 62.0249 22.7385 62.717 22.7385C63.3859 22.7385 63.9166 22.9526 64.3092 23.3807C64.7046 23.8088 64.9024 24.3879 64.9024 25.1182ZM61.2601 25.1182C61.2601 25.7058 61.3823 26.1535 61.6265 26.4613C61.8708 26.769 62.2299 26.9229 62.7039 26.9229C63.1779 26.9229 63.5371 26.7704 63.7814 26.4655C64.0285 26.1577 64.1521 25.7086 64.1521 25.1182C64.1521 24.5334 64.0285 24.09 63.7814 23.7878C63.5371 23.4828 63.175 23.3303 62.6952 23.3303C62.2212 23.3303 61.8635 23.48 61.6222 23.7794C61.3808 24.0788 61.2601 24.525 61.2601 25.1182Z" fill="white"/>
<path d="M38.7911 30.4316C38.0903 30.4316 37.5363 30.6569 37.1292 31.1073C36.725 31.555 36.5229 32.1692 36.5229 32.9498C36.5229 33.7528 36.7178 34.374 37.1074 34.8133C37.5 35.2498 38.0583 35.468 38.7824 35.468C39.2273 35.468 39.7348 35.3911 40.3047 35.2372V35.8625C39.8627 36.022 39.3175 36.1018 38.669 36.1018C37.7297 36.1018 37.0042 35.8276 36.4924 35.2791C35.9835 34.7307 35.729 33.9515 35.729 32.9414C35.729 32.3091 35.8512 31.7551 36.0954 31.2794C36.3426 30.8037 36.6974 30.4372 37.1598 30.1798C37.625 29.9224 38.1717 29.7937 38.7999 29.7937C39.4687 29.7937 40.0532 29.9112 40.5534 30.1462L40.2393 30.759C39.7566 30.5407 39.2739 30.4316 38.7911 30.4316Z" fill="white"/>
<path d="M44.5271 36.0178L44.3832 35.3631H44.3483C44.1098 35.6513 43.8714 35.8471 43.6329 35.9507C43.3974 36.0514 43.1022 36.1018 42.7474 36.1018C42.2734 36.1018 41.9012 35.9842 41.6308 35.7492C41.3632 35.5142 41.2295 35.1798 41.2295 34.7461C41.2295 33.8172 42.0015 33.3303 43.5457 33.2856L44.357 33.2604V32.975C44.357 32.6141 44.2756 32.3482 44.1127 32.1776C43.9528 32.0041 43.6954 31.9174 43.3407 31.9174C42.9423 31.9174 42.4915 32.0349 41.9885 32.2699L41.766 31.7369C42.0015 31.6138 42.2589 31.5172 42.5381 31.4473C42.8201 31.3773 43.1022 31.3424 43.3843 31.3424C43.9542 31.3424 44.3759 31.4641 44.6493 31.7075C44.9255 31.9509 45.0636 32.3412 45.0636 32.8785V36.0178H44.5271ZM42.8914 35.5268C43.3421 35.5268 43.6954 35.4079 43.9513 35.17C44.2101 34.9322 44.3396 34.5992 44.3396 34.1711V33.7556L43.6155 33.785C43.0397 33.8046 42.6239 33.8913 42.368 34.0452C42.115 34.1963 41.9885 34.4328 41.9885 34.7545C41.9885 35.0063 42.067 35.198 42.224 35.3295C42.3839 35.461 42.6064 35.5268 42.8914 35.5268Z" fill="white"/>
<path d="M52.6535 36.0178V33.0254C52.6535 32.6588 52.572 32.3846 52.4092 32.2027C52.2463 32.0181 51.9933 31.9257 51.6502 31.9257C51.1995 31.9257 50.8665 32.0503 50.6513 32.2993C50.4361 32.5483 50.3285 32.9316 50.3285 33.4493V36.0178H49.6044V33.0254C49.6044 32.6588 49.523 32.3846 49.3602 32.2027C49.1973 32.0181 48.9429 31.9257 48.5968 31.9257C48.1432 31.9257 47.8102 32.0573 47.5979 32.3203C47.3886 32.5805 47.2839 33.0086 47.2839 33.6045V36.0178H46.5598V31.4179H47.1487L47.2664 32.0475H47.3013C47.438 31.8236 47.6299 31.6487 47.8771 31.5228C48.1272 31.3969 48.4064 31.334 48.7146 31.334C49.462 31.334 49.9505 31.5942 50.1802 32.1146H50.2151C50.3576 31.874 50.5641 31.6837 50.8345 31.5438C51.105 31.4039 51.4132 31.334 51.7593 31.334C52.3001 31.334 52.7043 31.4683 52.9719 31.7369C53.2423 32.0027 53.3775 32.4294 53.3775 33.017V36.0178H52.6535Z" fill="white"/>
<path d="M57.0983 36.1018C56.7871 36.1018 56.5022 36.0472 56.2434 35.9381C55.9874 35.8262 55.7723 35.6555 55.5978 35.426H55.5454C55.5803 35.6946 55.5978 35.9493 55.5978 36.1899V38.0827H54.8737V31.4179H55.4626L55.5629 32.0475H55.5978C55.7839 31.7956 56.0005 31.6138 56.2477 31.5018C56.4949 31.3899 56.7784 31.334 57.0983 31.334C57.7322 31.334 58.2208 31.5424 58.5639 31.9593C58.91 32.3762 59.083 32.961 59.083 33.7137C59.083 34.4691 58.9071 35.0567 58.5552 35.4764C58.2062 35.8933 57.7206 36.1018 57.0983 36.1018ZM56.9936 31.9257C56.5051 31.9257 56.1517 32.0559 55.9337 32.3161C55.7156 32.5763 55.6036 32.9904 55.5978 33.5584V33.7137C55.5978 34.36 55.7097 34.8231 55.9337 35.1029C56.1576 35.3799 56.5167 35.5184 57.0111 35.5184C57.424 35.5184 57.7468 35.3575 57.9794 35.0357C58.215 34.714 58.3327 34.2705 58.3327 33.7053C58.3327 33.1317 58.215 32.6924 57.9794 32.3874C57.7468 32.0796 57.4182 31.9257 56.9936 31.9257Z" fill="white"/>
<path d="M61.0328 31.4179V34.402C61.0328 34.7769 61.1215 35.0567 61.2989 35.2414C61.4763 35.426 61.754 35.5184 62.132 35.5184C62.6322 35.5184 62.9971 35.3869 63.2269 35.1239C63.4595 34.8608 63.5758 34.4314 63.5758 33.8354V31.4179H64.2999V36.0178H63.7023L63.5976 35.4009H63.5584C63.4101 35.6275 63.2036 35.801 62.939 35.9213C62.6772 36.0416 62.3777 36.1018 62.0404 36.1018C61.4588 36.1018 61.0226 35.9689 60.7318 35.703C60.4439 35.4372 60.3 35.0119 60.3 34.4272V31.4179H61.0328Z" fill="white"/>
<path d="M68.9236 34.7629C68.9236 35.191 68.7578 35.5212 68.4263 35.7534C68.0948 35.9856 67.6295 36.1018 67.0305 36.1018C66.3965 36.1018 65.9022 36.0052 65.5474 35.8122V35.1658C65.7771 35.2777 66.0229 35.3659 66.2846 35.4302C66.5492 35.4946 66.8037 35.5268 67.0479 35.5268C67.426 35.5268 67.7168 35.4694 67.9203 35.3547C68.1239 35.2372 68.2257 35.0595 68.2257 34.8217C68.2257 34.6426 68.1442 34.4901 67.9814 34.3642C67.8215 34.2355 67.5074 34.0844 67.0392 33.9109C66.5943 33.7514 66.2773 33.6129 66.0883 33.4954C65.9022 33.3751 65.7626 33.2394 65.6695 33.0883C65.5794 32.9372 65.5343 32.7568 65.5343 32.5469C65.5343 32.172 65.6928 31.8768 66.0098 31.6613C66.3268 31.4431 66.7615 31.334 67.314 31.334C67.8287 31.334 68.3318 31.4347 68.8232 31.6362L68.5659 32.2027C68.0861 32.0125 67.6513 31.9174 67.2617 31.9174C66.9185 31.9174 66.6597 31.9691 66.4852 32.0726C66.3108 32.1762 66.2235 32.3189 66.2235 32.5007C66.2235 32.6238 66.2555 32.7288 66.3195 32.8155C66.3864 32.9022 66.4925 32.9848 66.6379 33.0631C66.7833 33.1415 67.0625 33.2548 67.4754 33.4031C68.0425 33.6017 68.4249 33.8018 68.6226 34.0033C68.8232 34.2047 68.9236 34.4579 68.9236 34.7629Z" fill="white"/>
<path d="M72.5353 36.0178V29.8818H73.2768V36.0178H72.5353Z" fill="white"/>
<path d="M77.1459 36.1018C76.8347 36.1018 76.5497 36.0472 76.2909 35.9381C76.035 35.8262 75.8198 35.6555 75.6454 35.426H75.593C75.6279 35.6946 75.6454 35.9493 75.6454 36.1899V38.0827H74.9213V31.4179H75.5101L75.6105 32.0475H75.6454C75.8315 31.7956 76.0481 31.6138 76.2953 31.5018C76.5425 31.3899 76.826 31.334 77.1459 31.334C77.7798 31.334 78.2684 31.5424 78.6115 31.9593C78.9575 32.3762 79.1306 32.961 79.1306 33.7137C79.1306 34.4691 78.9546 35.0567 78.6028 35.4764C78.2538 35.8933 77.7682 36.1018 77.1459 36.1018ZM77.0412 31.9257C76.5527 31.9257 76.1993 32.0559 75.9812 32.3161C75.7631 32.5763 75.6512 32.9904 75.6454 33.5584V33.7137C75.6454 34.36 75.7573 34.8231 75.9812 35.1029C76.2051 35.3799 76.5643 35.5184 77.0586 35.5184C77.4716 35.5184 77.7944 35.3575 78.027 35.0357C78.2625 34.714 78.3803 34.2705 78.3803 33.7053C78.3803 33.1317 78.2625 32.6924 78.027 32.3874C77.7944 32.0796 77.4658 31.9257 77.0412 31.9257Z" fill="white"/>
<path d="M84.5263 33.7137C84.5263 34.4635 84.33 35.0497 83.9374 35.4722C83.5449 35.8919 83.0025 36.1018 82.3104 36.1018C81.883 36.1018 81.5035 36.0052 81.172 35.8122C80.8405 35.6191 80.5846 35.3421 80.4043 34.9812C80.224 34.6202 80.1338 34.1977 80.1338 33.7137C80.1338 32.9638 80.3287 32.3804 80.7183 31.9635C81.108 31.5438 81.6489 31.334 82.341 31.334C83.0098 31.334 83.5405 31.548 83.9331 31.9761C84.3286 32.4042 84.5263 32.9834 84.5263 33.7137ZM80.8841 33.7137C80.8841 34.3012 81.0062 34.7489 81.2505 35.0567C81.4948 35.3645 81.8539 35.5184 82.3279 35.5184C82.8019 35.5184 83.161 35.3659 83.4053 35.0609C83.6525 34.7531 83.7761 34.304 83.7761 33.7137C83.7761 33.1289 83.6525 32.6854 83.4053 32.3832C83.161 32.0782 82.799 31.9257 82.3192 31.9257C81.8452 31.9257 81.4875 32.0754 81.2461 32.3748C81.0048 32.6742 80.8841 33.1205 80.8841 33.7137Z" fill="white"/>
<path d="M87.981 31.334C88.1933 31.334 88.3837 31.3508 88.5524 31.3843L88.4521 32.0307C88.2543 31.9887 88.0799 31.9677 87.9286 31.9677C87.5419 31.9677 87.2104 32.1188 86.9341 32.421C86.6608 32.7232 86.5241 33.0995 86.5241 33.55V36.0178H85.8V31.4179H86.3976L86.4805 32.2699H86.5154C86.6928 31.9705 86.9065 31.7397 87.1566 31.5774C87.4067 31.4151 87.6815 31.334 87.981 31.334Z" fill="white"/>
<path d="M92.3866 36.0178L92.2426 35.3631H92.2077C91.9693 35.6513 91.7308 35.8471 91.4924 35.9507C91.2568 36.0514 90.9617 36.1018 90.6069 36.1018C90.1329 36.1018 89.7607 35.9842 89.4902 35.7492C89.2227 35.5142 89.0889 35.1798 89.0889 34.7461C89.0889 33.8172 89.861 33.3303 91.4051 33.2856L92.2165 33.2604V32.975C92.2165 32.6141 92.135 32.3482 91.9722 32.1776C91.8122 32.0041 91.5549 31.9174 91.2001 31.9174C90.8017 31.9174 90.351 32.0349 89.8479 32.2699L89.6255 31.7369C89.861 31.6138 90.1183 31.5172 90.3975 31.4473C90.6796 31.3773 90.9617 31.3424 91.2437 31.3424C91.8137 31.3424 92.2354 31.4641 92.5087 31.7075C92.785 31.9509 92.9231 32.3412 92.9231 32.8785V36.0178H92.3866ZM90.7508 35.5268C91.2016 35.5268 91.5549 35.4079 91.8108 35.17C92.0696 34.9322 92.199 34.5992 92.199 34.1711V33.7556L91.4749 33.785C90.8991 33.8046 90.4833 33.8913 90.2274 34.0452C89.9744 34.1963 89.8479 34.4328 89.8479 34.7545C89.8479 35.0063 89.9264 35.198 90.0835 35.3295C90.2434 35.461 90.4659 35.5268 90.7508 35.5268ZM90.5807 30.7044C90.7203 30.5309 90.8701 30.3211 91.03 30.0749C91.1928 29.8286 91.3208 29.6146 91.4139 29.4327H92.295V29.5209C92.167 29.7027 91.9766 29.9266 91.7236 30.1924C91.4706 30.4582 91.251 30.6638 91.0649 30.8093H90.5807V30.7044Z" fill="white"/>
</svg>
